<?xml version="1.0" encoding="UTF-8"?>
<svg viewBox="0 0 992.12596 496.06298" xmlns="http://www.w3.org/2000/svg">
 <path d="m0-7.6e-5h992.13v496.06h-992.13z" fill="#f00" fill-rule="evenodd"/>
 <path transform="matrix(.52022 0 0 .4147 24.997 -37.011)" d="m268.7 174.69-14.142 45.963-43.311 0.883 32.704 32.704-10.607 48.613 36.24-27.4 38.006 26.516-11.49-48.614 30.936-30.936-43.31-0.884-15.026-46.845z" fill="none" stroke="#ff0" stroke-width="11.625"/>
 <path transform="matrix(.62979 0 0 .61412 -5.3635 -60.559)" d="m285.56 244.58c130.45 120.55 10.201 210.77-38.687 163.25-5.201-5.57-11.068-10.742-17.625-17.792l-10.613 5.52-7.969-1.356-0.794 8.705-5.552 5.003-4.229 3.66c-14.971 7.391-16.964 6.611-25.16 17.841-7.151 10.259 3.119 20.401 15.222 12.752 11.637-7.354 8.573-4.728 17.869-19.799l8.234-9.787 7.704-1.326c87.233 109.67 242.73-61.961 61.6-166.67z" fill="#ff0" fill-rule="evenodd"/>
 <path transform="matrix(.62835 -.04076 .04328 .61272 -20.738 -47.129)" d="m342.26 443.32 19.979-16.387-90.004-109.74 26.789-26.11-36.398-5.016-53.011 42.82 22.573 20.805 25.158-20.33 84.914 113.96z" fill="#ff0" fill-rule="evenodd"/>
</svg>
